<?xml version="1.0" encoding="utf-8"?>
<svg class="card" preserveAspectRatio="none" viewBox="-120 -168 240 336" xmlns="http://www.w3.org/2000/svg" xmlns:xlink="http://www.w3.org/1999/xlink">
  <symbol id="b" viewBox="-600 -600 1200 1200" preserveAspectRatio="xMinYMid">
    <path d="M30 150c5 235 55 250 100 350h-260c45-100 95-115 100-350a10 10 0 00-20 0 210 210 0 11-74-201 10 10 0 0014-14 230 230 0 11220 0 10 10 0 0014 14 210 210 0 11-74 201 10 10 0 00-20 0z"/>
  </symbol>
  <symbol id="a" viewBox="-500 -500 1000 1000" preserveAspectRatio="xMinYMid">
    <path d="M-250-320v-140h450L-110-80c10-10 60-40 110-40 200 0 250 120 250 270 0 200-80 310-280 310s-230-160-230-160" stroke="#000" stroke-width="80" stroke-linecap="square" stroke-miterlimit="1.5" fill="none"/>
  </symbol>
  <use height="32" transform="matrix(1, 0, 0, 1, -114.4000015258789, -156)" xlink:href="#a"/>
  <use height="26.769" transform="matrix(1, 0, 0, 1, -111.78399658203125, -119)" xlink:href="#b"/>
  <use height="70" transform="matrix(1, 0, 0, 1, -35, -135.58799743652344)" xlink:href="#b"/>
  <use height="70" transform="matrix(1, 0, 0, 1, -35, -35)" xlink:href="#b"/>
  <g transform="rotate(180)">
    <use height="32" transform="matrix(1, 0, 0, 1, -114.4000015258789, -156)" xlink:href="#a"/>
    <use height="26.769" transform="matrix(1, 0, 0, 1, -111.78399658203125, -119)" xlink:href="#b"/>
    <use height="70" transform="matrix(1, 0, 0, 1, -35, -135.58799743652344)" xlink:href="#b"/>
  </g>
</svg>